PathFileType	4	(X/Y/Z)	Kaydara																																																																																																																									
DataRate	CameraRate	NumFrames	NumMarkers	Units	OrigDataRate	OrigDataStartFrame	OrigNumFrames																																																																																																																					
30	30	4	41	mm	30	162	258																																																																																																																					
Frame#	Time	SALE_LFHD			SALE_RFHD			SALE_LBHD			SALE_RBHD			SALE_LFTShould			SALE_RFTShould			SALE_LRRShould			SALE_RRRShould			SALE_T10			SALE_STRN			SALE_TRUN			SALE_LSHO			SALE_LUPA			SALE_LELB			SALE_LFRM			SALE_LWRA			SALE_LWRB			SALE_LFIN			SALE_RSHO			SALE_RUPA			SALE_RELB			SALE_RFRM			SALE_RWRB			SALE_RFIN			SALE_LFWT			SALE_RFWT			SALE_LBWT			SALE_RBWT			SALE_LTHI			SALE_LKNE			SALE_RWRA			SALE_LSHN			SALE_LANK			SALE_LHEE			SALE_LTOE			SALE_RTHI			SALE_RKNE			SALE_RSHN			SALE_RANK			SALE_RHEE			SALE_RTOE		
		X1	Y1	Z1	X2	Y2	Z2	X3	Y3	Z3	X4	Y4	Z4	X5	Y5	Z5	X6	Y6	Z6	X7	Y7	Z7	X8	Y8	Z8	X9	Y9	Z9	X10	Y10	Z10	X11	Y11	Z11	X12	Y12	Z12	X13	Y13	Z13	X14	Y14	Z14	X15	Y15	Z15	X16	Y16	Z16	X17	Y17	Z17	X18	Y18	Z18	X19	Y19	Z19	X20	Y20	Z20	X21	Y21	Z21	X22	Y22	Z22	X23	Y23	Z23	X24	Y24	Z24	X25	Y25	Z25	X26	Y26	Z26	X27	Y27	Z27	X28	Y28	Z28	X29	Y29	Z29	X30	Y30	Z30	X31	Y31	Z31	X32	Y32	Z32	X33	Y33	Z33	X34	Y34	Z34	X35	Y35	Z35	X36	Y36	Z36	X37	Y37	Z37	X38	Y38	Z38	X39	Y39	Z39	X40	Y40	Z40	X41	Y41	Z41
																																																																																																																												
162	5.377	147.27287	1618.77472	157.89989	17.56887	1608.0513	168.99731	134.4224	1593.2637	28.74987	10.29951	1582.97958	45.42817	173.47321	1344.75739	124.54653	34.63041	1336.90308	144.04688	151.46947	1412.3938	19.05221	2.5573	1411.2706	47.15292	69.309	1265.15022	-49.71725	108.61444	1265.06279	173.85597	114.23451	1175.63911	205.97828	278.431	1380.45868	43.49971	321.63673	1167.34032	8.68831	306.27245	1057.51457	-12.77994	345.20145	953.69423	1.63019	304.29827	806.94054	67.36847	360.51277	806.98601	15.00115	369.26342	761.46744	59.63766	-81.39722	1369.42505	100.14357	-124.67257	1138.60382	44.37059	-150.80138	1041.02722	96.51169	-147.54341	926.93665	93.91	-163.14405	793.82248	151.40277	-166.96125	761.10886	210.41771	230.59481	936.10077	121.30756	-44.99241	950.84297	144.5346	162.29792	987.77893	-45.04838	-15.81935	1008.38058	-30.94067	205.42198	609.03706	37.98508	219.59835	464.07524	157.07458	-110.91202	808.9769	203.9193	207.37566	302.07279	21.51857	190.89115	207.81446	-142.70082	142.35611	216.31798	-217.41903	179.61708	79.49153	-84.48002	-68.71561	692.60292	-1.91438	-30.25906	539.35352	102.62492	33.79864	352.2057	89.05802	10.38636	96.01385	46.57314	26.91155	53.3435	171.75737	61.18853	39.78199	-18.20481
163	5.41	148.59174	1618.89191	188.22414	18.89114	1608.37097	199.24833	135.6561	1596.4357	58.50133	11.39723	1586.13403	75.15996	173.33248	1346.43036	148.57121	34.78156	1339.42825	170.22041	149.19931	1414.34952	43.86203	1.2587	1413.83682	74.45806	65.43169	1267.8894	-24.28136	108.29005	1267.19093	198.3967	113.8297	1177.57736	230.02466	276.47003	1382.40311	65.54046	317.44598	1169.99466	26.24614	300.25381	1060.51392	4.17626	340.12016	956.17447	17.94454	305.2268	810.87158	90.49902	355.91282	809.52278	33.37682	370.17006	766.50307	78.31651	-82.06831	1372.85858	128.77159	-126.21595	1141.23451	78.5715	-151.40089	1044.78416	133.27925	-148.52694	930.616	132.65823	-163.63754	798.41629	192.41137	-166.71047	766.55495	251.84624	228.09649	939.44962	144.36885	-48.10937	950.52826	164.42226	162.07653	989.35715	-22.78011	-15.90516	1008.91258	-10.11982	208.92471	611.18568	78.01295	215.55538	474.63505	209.01693	-110.29474	813.76106	243.14194	205.37609	299.55753	89.09189	191.64646	188.24923	-64.91525	143.54187	186.86987	-141.41871	180.24006	71.29115	10.71863	-67.0253	695.09499	12.64652	-30.62141	538.53168	114.95029	34.20244	351.33541	97.41495	10.59508	96.33633	47.2037	26.31938	53.25198	171.48676	61.76299	39.74567	-17.84452
164	5.443	150.67221	1618.55927	218.56417	20.97448	1608.83133	229.89376	137.02678	1599.75479	88.43648	12.80769	1589.991	105.28042	173.1176	1348.08472	172.65587	34.89634	1341.60004	196.11628	147.40056	1416.35895	68.6942	0.21218	1416.35742	101.35676	62.05953	1270.66376	0.88732	108.16444	1269.03847	223.10455	113.6282	1179.20479	254.09946	274.74651	1384.22348	87.97038	314.12624	1172.39113	45.80888	296.0174	1063.12294	23.24697	336.07216	958.14377	37.11105	304.0341	814.26552	114.02123	351.57265	811.42555	54.36619	368.16071	769.41101	98.73699	-82.32942	1376.15524	156.81157	-127.47052	1144.17854	111.57887	-151.44627	1048.54576	168.53851	-148.54182	934.32312	169.87259	-162.60572	802.94144	231.90397	-164.41168	771.91086	291.9059	226.30772	943.25432	167.52874	-50.79336	949.90799	183.8759	161.66542	992.08527	-0.13968	-16.20837	1008.98026	10.94945	211.25471	615.7333	114.38857	211.21441	486.36497	253.7866	-108.2839	819.21547	281.56618	203.74241	296.5053	156.38427	192.1619	164.39882	19.21138	145.28791	150.39734	-57.34884	179.75573	61.63177	111.76561	-63.26664	695.55588	28.10593	-29.99467	537.55356	127.42947	35.65727	350.22835	106.27865	11.42629	96.86018	48.09112	26.08786	53.16954	171.45384	62.17032	40.70971	-18.84135
165	5.477	153.11934	1617.29034	248.86578	23.46821	1608.5791	260.84646	138.41965	1602.26547	118.37117	14.31267	1593.28857	135.824	173.03497	1348.65356	197.08582	35.09222	1342.64664	221.91359	146.40052	1417.35397	93.70664	-0.35536	1417.96082	127.98116	59.62758	1272.39014	26.26703	108.19458	1269.61441	247.80226	113.56409	1179.56245	278.31369	273.69926	1384.7348	111.25457	312.03243	1173.18558	67.39711	293.44175	1064.00917	44.43149	333.15109	958.59261	59.02077	300.94986	815.80315	137.48743	348.16227	811.91521	77.70276	364.2704	769.80515	122.5712	-82.34142	1378.2695	184.2939	-128.76307	1145.91965	142.68995	-151.28067	1051.01318	201.82369	-147.94592	936.74812	205.43882	-160.17044	806.93008	270.63923	-160.32936	776.57646	331.02283	225.08013	946.11366	191.1068	-52.57034	948.17535	204.65836	161.49021	994.2981	22.97972	-16.76108	1008.52432	32.6622	212.22134	620.30067	146.42704	207.0713	495.93609	291.74814	-104.69365	823.9846	318.48263	201.52014	293.53123	221.93861	191.83407	142.37144	105.75878	146.17326	115.05672	31.39143	179.54727	60.46297	216.13832	-58.89899	695.36308	44.63755	-27.877	536.40636	140.90308	37.50088	348.83095	115.68167	12.6193	97.49866	49.55481	26.04514	53.19703	171.6362	63.32773	41.11444	-18.13476
